# xmcd
#
# Track frame offsets:
#	150
#	18822
#	33452
#
# Disc length: 1014 seconds
#
# Revision: 1
# Processed by: cddbd v1.5PL3 Copyright (c) Steve Scherf et al.
# Submitted via: CDex 1.50Beta5
#
DISCID=1703f403
DTITLE=螢 - カゼドケイ
DYEAR=1900
DGENRE=Pop
TTITLE0=カゼドケイ
TTITLE1=テツゴク
TTITLE2=羽火
EXTD=
EXTT0=
EXTT1=
EXTT2=
PLAYORDER=
